<svg id="svg" version="1.1" xmlns="http://www.w3.org/2000/svg" viewBox="0 0 132 250" style="display: block;"><path d="M0 0 C43.56 0 87.12 0 132 0 C132 82.5 132 165 132 250 C88.44 250 44.88 250 0 250 C0 167.5 0 85 0 0 Z " transform="translate(0,0)" style="fill: #D0D0D2;"/><path d="M0 0 C4 2 4 2 5.24023438 4.26220703 C6.06762646 7.24368994 6.15041006 9.71292781 6.15625 12.8046875 C6.82539981 24.04816519 10.95906465 34.51672584 14.5 45.125 C15.21114038 47.29117317 15.92078773 49.4578371 16.62890625 51.625 C17.6223335 54.66518528 18.61780543 57.70448848 19.62536621 60.74002075 C20.0708783 62.08324905 20.0708783 62.08324905 20.52539062 63.45361328 C20.7866272 64.23745392 21.04786377 65.02129456 21.3170166 65.82888794 C22 68 22 68 22.43225098 70.21994019 C22.61960815 70.80735992 22.80696533 71.39477966 23 72 C25.66950673 73.12445306 25.66950673 73.12445306 29 74 C30.31245434 74.54235591 31.61563903 75.10752998 32.91015625 75.69140625 C33.59013672 75.99626953 34.27011719 76.30113281 34.97070312 76.61523438 C36.36994492 77.24887795 37.76837925 77.88430753 39.16601562 78.52148438 C42.76659233 80.13199874 46.05826837 81.43909082 50 82 C50 81.67 50 81.34 50 81 C51.2375 80.87625 52.475 80.7525 53.75 80.625 C56.8762197 80.24253695 59.28879237 79.69450477 62 78 C62 78.33 62 78.66 62 79 C63.258125 79 64.51625 79 65.8125 79 C73 79 73 79 74 80 C86.41776815 83.51078262 96.18947219 77.56376146 107 72 C107.66 71.67 108.32 71.34 109 71 C109.91104043 69.0382761 109.91104043 69.0382761 110.67993164 66.6105957 C110.99688492 65.67484207 111.3138382 64.73908844 111.64039612 63.77497864 C111.97691696 62.7522435 112.31343781 61.72950836 112.66015625 60.67578125 C113.0100914 59.62279343 113.36002655 58.5698056 113.7205658 57.48490906 C114.46173134 55.24412624 115.19871159 53.00195552 115.93188477 50.75854492 C117.04486124 47.36626183 118.18273455 43.9830487 119.32226562 40.59960938 C124.25181811 25.90938865 124.25181811 25.90938865 125.92602539 10.59375 C126.0357229 6.74745832 127.01973221 4.27505827 129 1 C129.99 0.67 130.98 0.34 132 0 C132 33.33 132 66.66 132 101 C88.44 101 44.88 101 0 101 C0 67.67 0 34.34 0 0 Z " transform="translate(0,149)" style="fill: #000000;"/><path d="M0 0 C43.56 0 87.12 0 132 0 C132 33 132 66 132 100 C128 98 128 98 126.76049805 95.21069336 C126.04641845 92.1959708 125.84418278 89.71188349 125.83203125 86.62890625 C125.18787683 76.75046844 121.7878382 67.51440542 118.7355957 58.15844727 C117.68170798 54.91970028 116.65693195 51.67270835 115.63476562 48.42382812 C114.970454 46.3536191 114.30449707 44.28393715 113.63671875 42.21484375 C113.18023201 40.76488258 113.18023201 40.76488258 112.71452332 39.28562927 C110.85471209 33.65375144 109.29779594 29.99814733 104.06469727 26.82739258 C103.40526123 26.51954834 102.7458252 26.2117041 102.06640625 25.89453125 C101.33486328 25.55099609 100.60332031 25.20746094 99.84960938 24.85351562 C99.09486328 24.50998047 98.34011719 24.16644531 97.5625 23.8125 C96.81162109 23.45736328 96.06074219 23.10222656 95.28710938 22.73632812 C91.5506881 21.00449522 88.12252393 19.54912347 84 19 C83.94392578 17.98679687 83.94392578 17.98679687 83.88671875 16.953125 C83.82097656 16.06109375 83.75523438 15.1690625 83.6875 14.25 C83.62949219 13.36828125 83.57148437 12.4865625 83.51171875 11.578125 C82.90089803 8.50070764 82.32546225 7.12324814 80 5 C71.58840309 3.26076004 60.29815736 2.95030544 52 5 C49.04556644 7.80194667 48.57421731 10.2718969 48.3125 14.25 C48.24675781 15.14203125 48.18101563 16.0340625 48.11328125 16.953125 C48.07589844 17.62859375 48.03851563 18.3040625 48 19 C46.845 19.33 45.69 19.66 44.5 20 C42.66585162 20.66442102 40.83266144 21.33148852 39 22 C37.15716431 22.5420105 37.15716431 22.5420105 35.27709961 23.0949707 C29.70830817 25.02583637 24.76555418 27.23530642 21.50299072 32.34417725 C18.16735978 39.32944608 16.15947407 46.75993049 14.0625 54.1875 C13.3783696 56.40334308 12.68895233 58.61756109 11.99414062 60.83007812 C9.06967431 70.34929706 6.24564474 79.59697796 6.10473633 89.61962891 C5.9414736 93.33014545 4.84880002 95.80015381 3 99 C1.515 99.99 1.515 99.99 0 101 C0 67.67 0 34.34 0 0 Z " transform="translate(0,0)" style="fill: #000000;"/><path d="M0 0 C3.31747365 -0.04223635 6.62102361 -0.00395147 9.9375 0.08203125 C11.16339844 0.10716797 11.16339844 0.10716797 12.4140625 0.1328125 C15.80972411 0.35537459 17.73432004 0.92456678 20.4375 3.01953125 C22.57287851 7.37926238 22.27084657 11.31332332 21.9375 16.08203125 C22.91203125 16.16839844 23.8865625 16.25476563 24.890625 16.34375 C29.5461789 17.01301518 33.47790054 18.87054408 37.6875 20.89453125 C38.44160156 21.23806641 39.19570312 21.58160156 39.97265625 21.93554688 C40.69839844 22.27908203 41.42414063 22.62261719 42.171875 22.9765625 C43.14979004 23.43832886 43.14979004 23.43832886 44.14746094 23.90942383 C48.56772184 26.80502027 49.79613634 31.04826139 51.3828125 35.90234375 C51.59815643 36.56104462 51.81350037 37.21974548 52.03536987 37.89840698 C52.48791653 39.2907143 52.93649801 40.68431593 53.38134766 42.07910156 C54.05497915 44.18353602 54.74725683 46.28116401 55.44140625 48.37890625 C57.77707777 55.56111217 59.71629991 62.47229217 59.9375 70.08203125 C56.33776505 67.35026608 55.51890143 63.41141414 54.2734375 59.2734375 C54.03589752 58.51030746 53.79835754 57.74717743 53.55361938 56.96092224 C52.79775775 54.52475078 52.05512767 52.08476537 51.3125 49.64453125 C50.80552405 48.00560037 50.29772067 46.36692519 49.7890625 44.72851562 C46.02671129 32.56413928 46.02671129 32.56413928 45.53775024 29.92173767 C45.24062637 29.01108299 45.24062637 29.01108299 44.9375 28.08203125 C42.18403074 26.94804328 42.18403074 26.94804328 38.9375 26.08203125 C36.88849777 25.05486909 34.84704213 24.01254559 32.8125 22.95703125 C26.50663052 19.98871152 20.8624913 18.89161952 13.9375 20.08203125 C13.2775 20.74203125 12.6175 21.40203125 11.9375 22.08203125 C9.22827199 22.28055227 6.64446821 22.36042602 3.9375 22.33203125 C3.20015625 22.33976562 2.4628125 22.3475 1.703125 22.35546875 C-3.8091804 22.33535085 -3.8091804 22.33535085 -6.0625 20.08203125 C-13.78052906 18.40060349 -20.57858177 20.61206501 -27.625 23.58203125 C-28.41068359 23.89575684 -29.19636719 24.20948242 -30.00585938 24.53271484 C-34.07767422 26.37670571 -36.36482346 27.78925115 -37.99609375 32.0546875 C-38.37901924 33.38956297 -38.73734683 34.7319202 -39.0625 36.08203125 C-39.3409375 36.95730469 -39.619375 37.83257812 -39.90625 38.734375 C-40.1228125 39.48847656 -40.339375 40.24257813 -40.5625 41.01953125 C-42.49576316 47.59062261 -44.66850434 54.03966646 -47.0625 60.45703125 C-50.45793858 69.83676771 -52.39258318 78.18061218 -52.65625 88.2109375 C-52.7903125 89.15839844 -52.924375 90.10585937 -53.0625 91.08203125 C-54.5475 92.07203125 -54.5475 92.07203125 -56.0625 93.08203125 C-57.36285162 79.12010769 -54.09182037 67.32027581 -49.66601562 54.13916016 C-48.55436905 50.80766359 -47.50214134 47.46105058 -46.453125 44.109375 C-45.75346645 41.96891588 -45.0504606 39.82954737 -44.34375 37.69140625 C-44.03505981 36.69872742 -43.72636963 35.70604858 -43.4083252 34.68328857 C-41.40346771 28.87824481 -39.50407017 25.85991092 -33.99882507 22.97865295 C-33.3598378 22.68276779 -32.72085052 22.38688263 -32.0625 22.08203125 C-30.92425781 21.48777344 -29.78601563 20.89351562 -28.61328125 20.28125 C-27.54464844 19.78238281 -26.47601563 19.28351562 -25.375 18.76953125 C-24.29863281 18.25777344 -23.22226562 17.74601562 -22.11328125 17.21875 C-19.15668724 16.11712534 -17.17728874 15.83354161 -14.0625 16.08203125 C-14.10890625 15.41816406 -14.1553125 14.75429688 -14.203125 14.0703125 C-14.37756889 9.80266745 -14.46893065 6.87863532 -12.5 3.01953125 C-8.50708066 -0.15432772 -4.88289916 0.13079194 0 0 Z " transform="translate(62.0625,2.91796875)" style="fill: #909090;"/><path d="M0 0 C0.495 0.99 0.495 0.99 1 2 C1.66 2 2.32 2 3 2 C4.07506568 5.22519703 4.20946454 7.86046431 4.375 11.25 C4.74618794 16.52911737 5.38675483 20.4006885 8 25 C8.66 25.33 9.32 25.66 10 26 C10 42.17 10 58.34 10 75 C9.01 75.33 8.02 75.66 7 76 C5.19088312 80.32177921 4.97268498 84.06132691 4.88671875 88.71484375 C4.17143625 99.03486996 1.06426013 108.72784708 -2.0324707 118.55175781 C-2.71989378 120.76963003 -3.37976257 122.99622829 -4.01196289 125.23046875 C-9.54641325 144.78371194 -9.54641325 144.78371194 -15.88232422 149.18066406 C-19.15450097 151.00286747 -22.49812438 152.31390004 -26.07974243 153.39173889 C-28.05743743 154.01819389 -29.89023932 154.80212247 -31.77856445 155.65844727 C-35.47046679 157.19592383 -37.79810276 157.20676205 -41.75 156.8125 C-42.85859375 156.71582031 -43.9671875 156.61914062 -45.109375 156.51953125 C-48 156 -48 156 -51 154 C-51 154.33 -51 154.66 -51 155 C-55 155 -59 155 -63 155 C-66.36635038 155.91809556 -69.68973336 156.89657779 -73 158 C-76.80229534 157.06994215 -80.3777694 155.46847187 -84 154 C-84.63212402 153.76780762 -85.26424805 153.53561523 -85.91552734 153.29638672 C-87.9408769 152.55015332 -89.93772405 151.74951249 -91.9375 150.9375 C-92.5759082 150.71191406 -93.21431641 150.48632812 -93.87207031 150.25390625 C-96.81471303 148.99388753 -98.53897785 147.84412651 -100.09350586 144.99780273 C-101.19447107 142.0313533 -102.09266122 139.03162563 -103 136 C-103.76599927 133.71944332 -104.55243243 131.44641141 -105.3384552 129.17268372 C-106.5181366 125.73995745 -107.6598716 122.29505892 -108.80102539 118.84936523 C-109.39093845 117.07800141 -109.98727723 115.30876432 -110.59008789 113.54174805 C-113.87275545 103.91014569 -116.68538859 95.09679093 -116.80786133 84.84106445 C-117.01452631 81.78520631 -117.58496603 79.7102097 -119 77 C-119.99 76.34 -120.98 75.68 -122 75 C-122.39440918 72.96414185 -122.39440918 72.96414185 -122.41992188 70.43017578 C-122.43583374 69.48224152 -122.45174561 68.53430725 -122.46813965 67.55764771 C-122.46834106 66.53057709 -122.46854248 65.50350647 -122.46875 64.4453125 C-122.47636353 63.39221893 -122.48397705 62.33912537 -122.49182129 61.25411987 C-122.50264188 59.02311579 -122.50546748 56.79206096 -122.50097656 54.56103516 C-122.50000577 51.14529823 -122.54157511 47.73181762 -122.5859375 44.31640625 C-122.59114534 42.15104636 -122.59383268 39.98567865 -122.59375 37.8203125 C-122.61014526 36.79729034 -122.62654053 35.77426819 -122.64343262 34.72024536 C-122.57405235 27.60553905 -122.57405235 27.60553905 -119.46289062 24.32373047 C-118.65013672 23.88689941 -117.83738281 23.45006836 -117 23 C-116.67 23.99 -116.34 24.98 -116 26 C-116.48666641 26.40597916 -116.97333282 26.81195831 -117.4747467 27.23023987 C-119.36559409 29.42420092 -119.38378554 30.45433296 -119.40405273 33.31616211 C-119.41673691 34.18393784 -119.42942108 35.05171356 -119.44248962 35.94578552 C-119.43955399 36.88019974 -119.43661835 37.81461395 -119.43359375 38.77734375 C-119.4388356 39.74023819 -119.44407745 40.70313263 -119.44947815 41.69520569 C-119.45590251 43.73193396 -119.45455601 45.76869931 -119.44604492 47.80541992 C-119.43754124 50.92238471 -119.46628065 54.03751352 -119.49804688 57.15429688 C-119.49965911 59.13281195 -119.49908093 61.11133027 -119.49609375 63.08984375 C-119.50732773 64.02223373 -119.51856171 64.95462372 -119.53013611 65.91526794 C-119.55510858 71.09744426 -119.55510858 71.09744426 -117.0456543 75.47265625 C-116.37058838 75.97667969 -115.69552246 76.48070312 -115 77 C-112.99504583 80.83750783 -112.75399052 84.14608477 -112.625 88.4375 C-111.82742222 101.09414409 -107.15025306 112.72144762 -102.90600586 124.56616211 C-102.57479736 125.4969458 -102.24358887 126.42772949 -101.90234375 127.38671875 C-101.57097412 128.30912354 -101.23960449 129.23152832 -100.89819336 130.18188477 C-100 133 -100 133 -99.40063477 135.97241211 C-98.37469074 141.39272242 -98.37469074 141.39272242 -95.17993164 145.70727539 C-92.86048633 147.11084638 -90.57619699 148.17366166 -88.0625 149.1875 C-87.21236328 149.55842773 -86.36222656 149.92935547 -85.48632812 150.31152344 C-79.19524859 152.89902203 -72.7791162 154.83601064 -66 153 C-65.54625 152.49726563 -65.0925 151.99453125 -64.625 151.4765625 C-62.01270421 149.10288989 -59.43308656 149.60354321 -56 149.625 C-54.7625 149.61726562 -53.525 149.60953125 -52.25 149.6015625 C-48.66176348 150.0414665 -48.29366667 150.47955837 -46 153 C-36.51488829 155.34732563 -28.65755764 150.9718141 -20.4921875 146.75 C-17 145 -17 145 -15 145 C-14.84869629 144.493479 -14.69739258 143.98695801 -14.54150391 143.46508789 C-12.09061274 135.27723809 -9.61562237 127.09670988 -7.12890625 118.91967773 C-6.62151882 117.24914407 -6.11535613 115.57823797 -5.61035156 113.90698242 C-4.87602982 111.47743592 -4.13767382 109.04914871 -3.3984375 106.62109375 C-3.05937881 105.49470741 -3.05937881 105.49470741 -2.71347046 104.3455658 C-1.11396016 99.11396016 -1.11396016 99.11396016 0 98 C0.09489199 96.20970449 0.1841087 94.41887527 0.24047852 92.62695312 C0.47628308 85.45849435 1.01514048 80.17010507 5 74 C5.66 74 6.32 74 7 74 C6.95833098 67.53997743 6.88600527 61.08081642 6.79248047 54.62133789 C6.7642761 52.42447694 6.74305893 50.22751461 6.72900391 48.03051758 C6.70756751 44.8700777 6.6609122 41.71085604 6.609375 38.55078125 C6.60753204 37.08020012 6.60753204 37.08020012 6.60565186 35.57991028 C6.48583335 29.98610549 6.03685879 27.16879182 2 23 C0.98351401 20.17654107 0.82487049 17.44011897 0.68359375 14.453125 C0.64169922 13.60878906 0.59980469 12.76445313 0.55664062 11.89453125 C0.51732422 11.02183594 0.47800781 10.14914063 0.4375 9.25 C0.39431641 8.36183594 0.35113281 7.47367187 0.30664062 6.55859375 C0.20086385 4.37254037 0.09877454 2.18637911 0 0 Z " transform="translate(122,74)" style="fill: #828182;"/><path d="M0 0 C2.17284567 2.19782091 2.94187052 3.48846057 3.29296875 6.578125 C3.25816406 7.45984375 3.22335938 8.3415625 3.1875 9.25 C3.14689453 10.58804687 3.14689453 10.58804687 3.10546875 11.953125 C3.07066406 12.62859375 3.03585938 13.3040625 3 14 C2.30132812 14.04898437 1.60265625 14.09796875 0.8828125 14.1484375 C-0.02726562 14.22320312 -0.93734375 14.29796875 -1.875 14.375 C-2.77992187 14.44460937 -3.68484375 14.51421875 -4.6171875 14.5859375 C-7.17941903 14.79568132 -7.17941903 14.79568132 -9 17 C-11.3125 17.265625 -11.3125 17.265625 -14 17.25 C-15.3303125 17.25773437 -15.3303125 17.25773437 -16.6875 17.265625 C-19 17 -19 17 -21 15 C-23.43252661 14.53837573 -23.43252661 14.53837573 -26.125 14.375 C-27.03507812 14.30023438 -27.94515625 14.22546875 -28.8828125 14.1484375 C-29.58148438 14.09945313 -30.28015625 14.05046875 -31 14 C-31.08114106 12.22992286 -31.13925505 10.45877902 -31.1875 8.6875 C-31.22230469 7.70136719 -31.25710937 6.71523437 -31.29296875 5.69921875 C-31 3 -31 3 -29.66796875 1.1875 C-22.81128226 -3.69407539 -7.79693702 -1.73265267 0 0 Z " transform="translate(80,4)" style="fill: #5D3F4A;"/><path d="M0 0 C0.86625 0.12761719 1.7325 0.25523437 2.625 0.38671875 C5.35804876 0.76495318 7.85936098 1.07421875 10.625 1.07421875 C11.615 1.73421875 12.605 2.39421875 13.625 3.07421875 C15.6146995 3.46435591 17.61519869 3.80624524 19.625 4.07421875 C19.955 3.41421875 20.285 2.75421875 20.625 2.07421875 C22.20422406 3.65344281 21.832659 5.26865749 21.875 7.44921875 C21.90078125 8.24070313 21.9265625 9.0321875 21.953125 9.84765625 C21.55225206 12.56786551 20.71047648 13.3573871 18.625 15.07421875 C18.295 15.40421875 17.965 15.73421875 17.625 16.07421875 C15.07670317 17.34836717 13.47315819 16.7722129 10.7421875 16.3359375 C3.68316687 15.46332794 -3.35828799 16.16883656 -10.375 17.07421875 C-11.04166667 14.40755208 -11.70833333 11.74088542 -12.375 9.07421875 C-9.9 11.05421875 -9.9 11.05421875 -7.375 13.07421875 C-8.2 12.14609375 -9.025 11.21796875 -9.875 10.26171875 C-12.375 7.44921875 -12.375 7.44921875 -12.375 4.07421875 C-11.281875 3.97109375 -10.18875 3.86796875 -9.0625 3.76171875 C-5.44942658 3.47272226 -5.44942658 3.47272226 -3.95703125 1.51171875 C-2.375 0.07421875 -2.375 0.07421875 0 0 Z " transform="translate(62.375,228.92578125)" style="fill: #6C616E;"/><path d="M0 0 C0.33 0 0.66 0 1 0 C1 2.97 1 5.94 1 9 C1.69867188 8.97679687 2.39734375 8.95359375 3.1171875 8.9296875 C4.02726562 8.91164063 4.93734375 8.89359375 5.875 8.875 C7.23238281 8.84019531 7.23238281 8.84019531 8.6171875 8.8046875 C11 9 11 9 13 11 C15.36955386 11.31899515 15.36955386 11.31899515 18 11.25 C19.3303125 11.25773437 19.3303125 11.25773437 20.6875 11.265625 C23.19400239 11.22052862 23.19400239 11.22052862 25 9 C27.3828125 8.8046875 27.3828125 8.8046875 30.125 8.875 C31.03507812 8.89304687 31.94515625 8.91109375 32.8828125 8.9296875 C33.58148438 8.95289063 34.28015625 8.97609375 35 9 C35 6.03 35 3.06 35 0 C35.33 0 35.66 0 36 0 C36 3.3 36 6.6 36 10 C37.46179688 10.12955078 37.46179688 10.12955078 38.953125 10.26171875 C43.6086789 10.93098393 47.54040054 12.78851283 51.75 14.8125 C52.50410156 15.15603516 53.25820312 15.49957031 54.03515625 15.85351562 C54.76089844 16.19705078 55.48664063 16.54058594 56.234375 16.89453125 C57.21229004 17.35629761 57.21229004 17.35629761 58.20996094 17.82739258 C62.63022184 20.72298902 63.85863634 24.96623014 65.4453125 29.8203125 C65.66065643 30.47901337 65.87600037 31.13771423 66.09786987 31.81637573 C66.55041653 33.20868305 66.99899801 34.60228468 67.44384766 35.99707031 C68.11747915 38.10150477 68.80975683 40.19913276 69.50390625 42.296875 C71.83957777 49.47908092 73.77879991 56.39026092 74 64 C70.40026505 61.26823483 69.58140143 57.32938289 68.3359375 53.19140625 C68.09839752 52.42827621 67.86085754 51.66514618 67.61611938 50.87889099 C66.86025775 48.44271953 66.11762767 46.00273412 65.375 43.5625 C64.86802405 41.92356912 64.36022067 40.28489394 63.8515625 38.64648438 C60.08923639 26.4821892 60.08923639 26.4821892 59.60025024 23.83995056 C59.40216766 23.23276688 59.20408508 22.62558319 59 22 C56.24733506 20.86105842 56.24733506 20.86105842 53 20 C50.94988448 18.99624214 48.90844736 17.97460912 46.875 16.9375 C39.87228628 13.63311959 33.64027436 13 26 13 C25.67 13.33 25.34 13.66 25 14 C22.69006618 14.12557162 20.37581464 14.17575729 18.0625 14.1875 C16.79535156 14.20167969 15.52820313 14.21585938 14.22265625 14.23046875 C11 14 11 14 9 12 C6.63490639 11.69940057 4.25558119 11.50484988 1.875 11.375 C0.59367187 11.30023438 -0.68765625 11.22546875 -2.0078125 11.1484375 C-3.48894531 11.07496094 -3.48894531 11.07496094 -5 11 C-5 10.67 -5 10.34 -5 10 C-3.35 10 -1.7 10 0 10 C0 6.7 0 3.4 0 0 Z " transform="translate(48,9)" style="fill: #7E7D7E;"/><path d="M0 0 C1.39456452 0.00667256 2.78911118 0.01863093 4.18359375 0.03515625 C4.89451172 0.03966797 5.60542969 0.04417969 6.33789062 0.04882812 C8.09899388 0.06064761 9.86005411 0.07858362 11.62109375 0.09765625 C11.62109375 1.08765625 11.62109375 2.07765625 11.62109375 3.09765625 C12.94109375 3.09765625 14.26109375 3.09765625 15.62109375 3.09765625 C15.62109375 4.41765625 15.62109375 5.73765625 15.62109375 7.09765625 C14.30109375 7.09765625 12.98109375 7.09765625 11.62109375 7.09765625 C11.62109375 10.06765625 11.62109375 13.03765625 11.62109375 16.09765625 C6.34109375 16.09765625 1.06109375 16.09765625 -4.37890625 16.09765625 C-4.39953125 13.64328125 -4.42015625 11.18890625 -4.44140625 8.66015625 C-4.45051025 7.88615479 -4.45961426 7.11215332 -4.46899414 6.31469727 C-4.47615538 4.57543908 -4.42915327 2.83620321 -4.37890625 1.09765625 C-3.37890625 0.09765625 -3.37890625 0.09765625 0 0 Z " transform="translate(46.37890625,64.90234375)" style="fill: #A6A0A7;"/><path d="M0 0 C4.95 0 9.9 0 15 0 C15 4.95 15 9.9 15 15 C10.05 15 5.1 15 0 15 C0 12.36 0 9.72 0 7 C-1.32 7 -2.64 7 -4 7 C-4 5.35 -4 3.7 -4 2 C-2.68 2 -1.36 2 0 2 C0 1.34 0 0.68 0 0 Z " transform="translate(75,169)" style="fill: #A7A2AA;"/><path d="M0 0 C4.95 0 9.9 0 15 0 C15 2.64 15 5.28 15 8 C16.32 8 17.64 8 19 8 C19 9.65 19 11.3 19 13 C17.68 13 16.36 13 15 13 C15 13.66 15 14.32 15 15 C10.05 15 5.1 15 0 15 C0 10.05 0 5.1 0 0 Z " transform="translate(43,169)" style="fill: #A49EA5;"/><path d="M0 0 C4.95 0 9.9 0 15 0 C15 4.95 15 9.9 15 15 C10.05 15 5.1 15 0 15 C0 14.34 0 13.68 0 13 C-1.32 13 -2.64 13 -4 13 C-4 11.35 -4 9.7 -4 8 C-2.68 8 -1.36 8 0 8 C0 5.36 0 2.72 0 0 Z " transform="translate(75,66)" style="fill: #A49EA5;"/><path d="M0 0 C5 0 5 0 6 1 C6.04080783 2.99958364 6.04254356 5.00045254 6 7 C9.63 7 13.26 7 17 7 C17 10.63 17 14.26 17 18 C11.39 18 5.78 18 0 18 C0 12.06 0 6.12 0 0 Z " transform="translate(42,93)" style="fill: #A59FA6;"/><path d="M0 0 C1.65 0 3.3 0 5 0 C5 5.94 5 11.88 5 18 C-0.61 18 -6.22 18 -12 18 C-12 14.37 -12 10.74 -12 7 C-8.04 7 -4.08 7 0 7 C0 4.69 0 2.38 0 0 Z " transform="translate(84,93)" style="fill: #A49EA5;"/><path d="M0 0 C5.28 0 10.56 0 16 0 C16 3.96 16 7.92 16 12 C12.04 12 8.08 12 4 12 C4 13.98 4 15.96 4 18 C2.68 18 1.36 18 0 18 C0 12.06 0 6.12 0 0 Z " transform="translate(100,139)" style="fill: #A59EA6;"/><path d="M0 0 C5.28 0 10.56 0 16 0 C16 5.94 16 11.88 16 18 C14.68 18 13.36 18 12 18 C12 16.02 12 14.04 12 12 C8.04 12 4.08 12 0 12 C0 8.04 0 4.08 0 0 Z " transform="translate(16,139)" style="fill: #A7A3AA;"/><path d="M0 0 C1.32 0 2.64 0 4 0 C4 5.94 4 11.88 4 18 C-1.28 18 -6.56 18 -12 18 C-12 14.04 -12 10.08 -12 6 C-8.04 6 -4.08 6 0 6 C0 4.02 0 2.04 0 0 Z " transform="translate(28,93)" style="fill: #A7A2A9;"/><path d="M0 0 C1.32 0 2.64 0 4 0 C4 1.98 4 3.96 4 6 C4.78246094 5.98839844 5.56492187 5.97679688 6.37109375 5.96484375 C7.38300781 5.95582031 8.39492187 5.94679688 9.4375 5.9375 C10.44683594 5.92589844 11.45617187 5.91429688 12.49609375 5.90234375 C15 6 15 6 16 7 C16.14310287 10.6691577 16.04221662 14.32715441 16 18 C10.72 18 5.44 18 0 18 C0 12.06 0 6.12 0 0 Z " transform="translate(100,93)" style="fill: #A59EA6;"/><path d="M0 0 C5.28 0 10.56 0 16 0 C16 5.94 16 11.88 16 18 C14.35 18 12.7 18 11 18 C11 15.69 11 13.38 11 11 C7.37 11 3.74 11 0 11 C0 7.37 0 3.74 0 0 Z " transform="translate(73,139)" style="fill: #A39DA4;"/><path d="M0 0 C5.28 0 10.56 0 16 0 C16 3.63 16 7.26 16 11 C12.04 11 8.08 11 4 11 C4 13.31 4 15.62 4 18 C2.68 18 1.36 18 0 18 C0 12.06 0 6.12 0 0 Z " transform="translate(43,139)" style="fill: #A29CA4;"/><path d="M0 0 C1.98 0 3.96 0 6 0 C6.61875 1.3921875 6.61875 1.3921875 7.25 2.8125 C8.93441786 5.88054681 10.08454083 7.19040465 13 9 C11.35 7.02 9.7 5.04 8 3 C8.639375 3.185625 9.27875 3.37125 9.9375 3.5625 C10.618125 3.706875 11.29875 3.85125 12 4 C12.33 3.67 12.66 3.34 13 3 C16 3 16 3 17.82421875 4.64453125 C18.43910156 5.35996094 19.05398437 6.07539063 19.6875 6.8125 C20.31011719 7.52019531 20.93273437 8.22789063 21.57421875 8.95703125 C23 11 23 11 23 14 C14.37757848 14.92017937 14.37757848 14.92017937 11 12.6640625 C9.375 11 9.375 11 7 8 C12 13.75 12 13.75 12 16 C10.68 15.34 9.36 14.68 8 14 C8.33 14.99 8.66 15.98 9 17 C3.61838837 16.19571518 1.17418489 12.07890425 -2 8 C-3.9375 5 -3.9375 5 -5 3 C-2 3 -2 3 -0.39453125 4.53125 C0.12753906 5.1809375 0.64960937 5.830625 1.1875 6.5 C1.71730469 7.1496875 2.24710938 7.799375 2.79296875 8.46875 C3.19128906 8.9740625 3.58960938 9.479375 4 10 C2.35 7.69 0.7 5.38 -1 3 C0.32 3.33 1.64 3.66 3 4 C2.01 2.68 1.02 1.36 0 0 Z " transform="translate(59,3)" style="fill: #7D7784;"/><path d="M0 0 C0.33 0.99 0.66 1.98 1 3 C0.51333359 3.40597916 0.02666718 3.81195831 -0.4747467 4.23023987 C-2.36559409 6.42420092 -2.38378554 7.45433296 -2.40405273 10.31616211 C-2.41673691 11.18393784 -2.42942108 12.05171356 -2.44248962 12.94578552 C-2.43955399 13.88019974 -2.43661835 14.81461395 -2.43359375 15.77734375 C-2.4388356 16.74023819 -2.44407745 17.70313263 -2.44947815 18.69520569 C-2.45590251 20.73193396 -2.45455601 22.76869931 -2.44604492 24.80541992 C-2.43754124 27.92238471 -2.46628065 31.03751352 -2.49804688 34.15429688 C-2.49965911 36.13281195 -2.49908093 38.11133027 -2.49609375 40.08984375 C-2.50732773 41.02223373 -2.51856171 41.95462372 -2.53013611 42.91526794 C-2.55259293 48.1087823 -2.55259293 48.1087823 -0.03149414 52.49438477 C0.63889893 52.99123779 1.30929199 53.48809082 2 54 C3.65497356 57.30994713 3.10084335 60.99123 3.0625 64.625 C3.05798828 65.42679687 3.05347656 66.22859375 3.04882812 67.0546875 C3.03703168 69.03649006 3.01909605 71.01825433 3 73 C2.34 73 1.68 73 1 73 C0.95101563 72.04738281 0.90203125 71.09476562 0.8515625 70.11328125 C0.77679687 68.85902344 0.70203125 67.60476562 0.625 66.3125 C0.52058594 64.45044922 0.52058594 64.45044922 0.4140625 62.55078125 C0.03019666 59.25895062 -0.45612033 56.91446673 -2 54 C-2.99 53.34 -3.98 52.68 -5 52 C-5.39440918 49.96414185 -5.39440918 49.96414185 -5.41992188 47.43017578 C-5.43583374 46.48224152 -5.45174561 45.53430725 -5.46813965 44.55764771 C-5.46834106 43.53057709 -5.46854248 42.50350647 -5.46875 41.4453125 C-5.47636353 40.39221893 -5.48397705 39.33912537 -5.49182129 38.25411987 C-5.50264188 36.02311579 -5.50546748 33.79206096 -5.50097656 31.56103516 C-5.50000577 28.14529823 -5.54157511 24.73181762 -5.5859375 21.31640625 C-5.59114534 19.15104636 -5.59383268 16.98567865 -5.59375 14.8203125 C-5.61014526 13.79729034 -5.62654053 12.77426819 -5.64343262 11.72024536 C-5.57405235 4.60553905 -5.57405235 4.60553905 -2.46289062 1.32373047 C-1.65013672 0.88689941 -0.83738281 0.45006836 0 0 Z " transform="translate(5,97)" style="fill: #767676;"/><path d="M0 0 C3.96 0 7.92 0 12 0 C12 1.32 12 2.64 12 4 C11.01 4 10.02 4 9 4 C9 6.64 9 9.28 9 12 C10.32 12.33 11.64 12.66 13 13 C12.67 13.99 12.34 14.98 12 16 C8.04 16 4.08 16 0 16 C0 14.68 0 13.36 0 12 C0.99 12 1.98 12 3 12 C3 9.69 3 7.38 3 5 C2.01 5 1.02 5 0 5 C0 3.35 0 1.7 0 0 Z " transform="translate(16,117)" style="fill: #A7A0A7;"/><path d="M0 0 C3.96 0 7.92 0 12 0 C11.67 1.65 11.34 3.3 11 5 C10.34 5 9.68 5 9 5 C9 7.31 9 9.62 9 12 C9.99 12 10.98 12 12 12 C11.67 13.32 11.34 14.64 11 16 C7.37 16 3.74 16 0 16 C0 14.68 0 13.36 0 12 C0.99 12 1.98 12 3 12 C3 9.69 3 7.38 3 5 C2.01 5 1.02 5 0 5 C0 3.35 0 1.7 0 0 Z " transform="translate(104,117)" style="fill: #A49CA4;"/><path d="M0 0 C0.144375 0.598125 0.28875 1.19625 0.4375 1.8125 C0.8872439 3.56150404 1.42892341 5.28677023 2 7 C1.109375 9.96875 1.109375 9.96875 -0.25 13.5 C-3.98504039 23.56026136 -6.3099708 32.33347245 -6.59375 43.12890625 C-6.7278125 44.07636719 -6.861875 45.02382812 -7 46 C-7.99 46.66 -8.98 47.32 -10 48 C-12.25731419 31.12030612 -5.5685394 15.6259732 0 0 Z " transform="translate(16,48)" style="fill: #989898;"/><path d="M0 0 C0.33 0.66 0.66 1.32 1 2 C1.66 2 2.32 2 3 2 C4.07506568 5.22519703 4.20946454 7.86046431 4.375 11.25 C4.81012984 17.44542016 5.44994315 22.44994315 10 27 C9.34 27 8.68 27 8 27 C8 42.18 8 57.36 8 73 C7.67 73 7.34 73 7 73 C6.99453156 72.17100945 6.99453156 72.17100945 6.98895264 71.32527161 C6.94709759 65.56595007 6.8777315 59.80742323 6.79248047 54.04858398 C6.76427873 51.90022739 6.74306025 49.75176719 6.72900391 47.60327148 C6.70756377 44.51231881 6.66090689 41.42261078 6.609375 38.33203125 C6.60814636 37.37351761 6.60691772 36.41500397 6.60565186 35.42744446 C6.48427866 29.88429081 5.98304494 27.14011871 2 23 C0.98351401 20.17654107 0.82487049 17.44011897 0.68359375 14.453125 C0.64169922 13.60878906 0.59980469 12.76445313 0.55664062 11.89453125 C0.51732422 11.02183594 0.47800781 10.14914063 0.4375 9.25 C0.39431641 8.36183594 0.35113281 7.47367187 0.30664062 6.55859375 C0.20086385 4.37254037 0.09877454 2.18637911 0 0 Z " transform="translate(122,74)" style="fill: #929292;"/><path d="M0 0 C0.33 0 0.66 0 1 0 C1 2.97 1 5.94 1 9 C1.69867188 8.97679687 2.39734375 8.95359375 3.1171875 8.9296875 C4.02726562 8.91164063 4.93734375 8.89359375 5.875 8.875 C7.23238281 8.84019531 7.23238281 8.84019531 8.6171875 8.8046875 C11 9 11 9 13 11 C15.36955386 11.31899515 15.36955386 11.31899515 18 11.25 C19.3303125 11.25773437 19.3303125 11.25773437 20.6875 11.265625 C23.19400239 11.22052862 23.19400239 11.22052862 25 9 C27.3828125 8.8046875 27.3828125 8.8046875 30.125 8.875 C31.03507812 8.89304687 31.94515625 8.91109375 32.8828125 8.9296875 C33.58148438 8.95289063 34.28015625 8.97609375 35 9 C35 6.03 35 3.06 35 0 C35.33 0 35.66 0 36 0 C36 3.3 36 6.6 36 10 C37.65 10 39.3 10 41 10 C41 10.33 41 10.66 41 11 C40.01257813 11.04898437 39.02515625 11.09796875 38.0078125 11.1484375 C36.72648437 11.22320312 35.44515625 11.29796875 34.125 11.375 C32.21074219 11.47941406 32.21074219 11.47941406 30.2578125 11.5859375 C26.91938301 11.67241106 26.91938301 11.67241106 25 14 C21.8125 14.265625 21.8125 14.265625 18 14.25 C16.741875 14.25515625 15.48375 14.2603125 14.1875 14.265625 C11 14 11 14 9 12 C6.63490639 11.69940057 4.25558119 11.50484988 1.875 11.375 C0.59367187 11.30023438 -0.68765625 11.22546875 -2.0078125 11.1484375 C-3.48894531 11.07496094 -3.48894531 11.07496094 -5 11 C-5 10.67 -5 10.34 -5 10 C-3.35 10 -1.7 10 0 10 C0 6.7 0 3.4 0 0 Z " transform="translate(48,9)" style="fill: #BAB1B5;"/><path d="M0 0 C4.85998287 1.40421636 9.66902865 2.82286984 14.375 4.6875 C17.98429513 6.22696072 17.98429513 6.22696072 22 6 C22 4.02 22 2.04 22 0 C22.99 0 23.98 0 25 0 C26.12975833 3.31395777 27.17884773 6.59702663 28 10 C21.00315531 10.66636616 15.50307684 9.50439943 8.9375 7.25 C7.79390015 6.87174072 7.79390015 6.87174072 6.62719727 6.48583984 C4.46484375 5.703125 4.46484375 5.703125 1 4 C0.28344727 1.89355469 0.28344727 1.89355469 0 0 Z " transform="translate(34,48)" style="fill: #9E939B;"/><path d="M0 0 C0.6084375 0.19464844 1.216875 0.38929688 1.84375 0.58984375 C-5.66381807 5.75367864 -10.82270075 6.88837909 -19.88671875 6.0390625 C-22.15625 5.58984375 -22.15625 5.58984375 -25.15625 3.58984375 C-25.15625 3.91984375 -25.15625 4.24984375 -25.15625 4.58984375 C-28.45625 4.58984375 -31.75625 4.58984375 -35.15625 4.58984375 C-34.82625 3.59984375 -34.49625 2.60984375 -34.15625 1.58984375 C-34.81625 1.25984375 -35.47625 0.92984375 -36.15625 0.58984375 C-33.86483714 0.53599854 -31.57306812 0.49712288 -29.28125 0.46484375 C-27.36699219 0.43003906 -27.36699219 0.43003906 -25.4140625 0.39453125 C-22.15625 0.58984375 -22.15625 0.58984375 -20.15625 2.58984375 C-13.24068833 3.38699682 -5.56395699 -1.05836138 0 0 Z " transform="translate(96.15625,224.41015625)" style="fill: #848485;"/><path d="M0 0 C-0.82115227 3.40297337 -1.87024167 6.68604223 -3 10 C-3.99 9.67 -4.98 9.34 -6 9 C-6 7.35 -6 5.7 -6 4 C-12.21228064 4.43341493 -17.46277329 6.60800802 -23.20703125 8.94140625 C-26 10 -26 10 -28 10 C-27.71655273 8.10644531 -27.71655273 8.10644531 -27 6 C-24.31751076 4.68143708 -21.87786847 3.68121667 -19.0625 2.75 C-18.29429932 2.48622559 -17.52609863 2.22245117 -16.73461914 1.95068359 C-10.97096702 0.07454055 -6.07795093 -0.57885247 0 0 Z " transform="translate(62,192)" style="fill: #9E929B;"/><path d="M0 0 C0.66 0 1.32 0 2 0 C2 1.98 2 3.96 2 6 C7.11800457 5.42841284 11.46035374 4.26682689 16.3125 2.4375 C22.8101983 0 22.8101983 0 25 0 C25 0.99 25 1.98 25 3 C6.17995444 11.03644647 6.17995444 11.03644647 -3 10 C-2.39009109 6.44219804 -1.4216319 3.3171411 0 0 Z " transform="translate(74,48)" style="fill: #9E929B;"/><path d="M0 0 C6.99684469 -0.66636616 12.49692316 0.49560057 19.0625 2.75 C19.8248999 3.00217285 20.5872998 3.2543457 21.37280273 3.51416016 C23.53515625 4.296875 23.53515625 4.296875 27 6 C27.71655273 8.10644531 27.71655273 8.10644531 28 10 C23.15693224 8.60067099 18.36878836 7.19217601 13.6875 5.3125 C10.43640878 4.15533194 8.38485876 3.68266949 5 4 C5 5.98 5 7.96 5 10 C4.01 9.67 3.02 9.34 2 9 C1.26953125 6.93359375 1.26953125 6.93359375 0.8125 4.4375 C0.65394531 3.61121094 0.49539062 2.78492188 0.33203125 1.93359375 C0.16767578 0.97646484 0.16767578 0.97646484 0 0 Z " transform="translate(71,192)" style="fill: #9E929A;"/><path d="M0 0 C3.99848383 0 4.68743237 0.34371619 8 2 C9.99110401 2.38290462 11.99100513 2.72604615 14 3 C14.33 2.34 14.66 1.68 15 1 C16.57922406 2.57922406 16.207659 4.19443874 16.25 6.375 C16.27578125 7.16648438 16.3015625 7.95796875 16.328125 8.7734375 C15.93070018 11.47024878 15.07493465 12.30729015 13 14 C8.07379425 10.15515649 3.87837425 5.91107745 0 1 C0 0.67 0 0.34 0 0 Z " transform="translate(68,230)" style="fill: #7D5F65;"/><path d="M0 0 C0.71542969 0.32677734 1.43085937 0.65355469 2.16796875 0.99023438 C5.85768856 2.79371425 7.60649938 3.89593302 9.88671875 7.43359375 C10.88833384 10.35134205 11.05862261 11.51484655 9.875 14.3125 C9.58625 13.673125 9.2975 13.03375 9 12.375 C8.04676549 10.16043921 8.04676549 10.16043921 5.875 9.3125 C5.875 8.3225 5.875 7.3325 5.875 6.3125 C5.01132813 6.04566406 4.14765625 5.77882813 3.2578125 5.50390625 C-0.0916282 4.32425335 -3.08957788 2.86189449 -6.25 1.25 C-12.5811075 -1.74434428 -18.16400764 -2.66241534 -25.125 -2.6875 C-25.125 -3.0175 -25.125 -3.3475 -25.125 -3.6875 C-23.23007254 -3.88394384 -21.33399097 -4.06927288 -19.4375 -4.25 C-17.85388672 -4.40662109 -17.85388672 -4.40662109 -16.23828125 -4.56640625 C-10.03678143 -4.80761892 -5.46067348 -2.67065725 0 0 Z " transform="translate(101.125,24.6875)" style="fill: #8F9090;"/><path d="M0 0 C2.10483555 0.0330288 4.2091243 0.10244546 6.3125 0.1875 C7.48425781 0.22230469 8.65601562 0.25710937 9.86328125 0.29296875 C13 1 13 1 14.9375 3.375 C16.17207681 6.42513094 15.97289325 7.90443057 15 11 C13.8274869 10.04882866 12.66212985 9.08882991 11.5 8.125 C10.8503125 7.59132813 10.200625 7.05765625 9.53125 6.5078125 C8.77328125 5.76144531 8.77328125 5.76144531 8 5 C8 4.34 8 3.68 8 3 C5.83333333 3.83333333 5.83333333 3.83333333 5 6 C3.68 5.34 2.36 4.68 1 4 C2.65 5.65 4.3 7.3 6 9 C5.67 9.66 5.34 10.32 5 11 C2.69 8.36 0.38 5.72 -2 3 C-1.34 2.01 -0.68 1.02 0 0 Z " transform="translate(67,3)" style="fill: #65515C;"/><path d="M0 0 C4.60255427 2.30127713 6.33342191 3.48732938 9 8 C10.31037934 9.68477344 11.63823078 11.35648543 13 13 C8.87784597 14.57869729 8.87784597 14.57869729 6 14 C2.51642791 11.05109009 -0.35377224 7.71431969 -3 4 C-3 3.34 -3 2.68 -3 2 C-0.50638429 3.20381448 1.68143083 4.45428722 4 6 C3.34 5.38125 2.68 4.7625 2 4.125 C0 2 0 2 0 0 Z " transform="translate(61,231)" style="fill: #776F7C;"/><path d="M0 0 C5.61 0 11.22 0 17 0 C17 0.99 17 1.98 17 3 C12.38 3 7.76 3 3 3 C3 5.64 3 8.28 3 11 C2.01 11 1.02 11 0 11 C0 7.37 0 3.74 0 0 Z " transform="translate(99,168)" style="fill: #9F949C;"/><path d="M0 0 C5.61 0 11.22 0 17 0 C17 3.63 17 7.26 17 11 C16.01 11 15.02 11 14 11 C14 8.36 14 5.72 14 3 C9.38 3 4.76 3 0 3 C0 2.01 0 1.02 0 0 Z " transform="translate(16,168)" style="fill: #A0959D;"/><path d="M0 0 C0.99 0 1.98 0 3 0 C3 3.63 3 7.26 3 11 C-2.61 11 -8.22 11 -14 11 C-14 10.01 -14 9.02 -14 8 C-9.38 8 -4.76 8 0 8 C0 5.36 0 2.72 0 0 Z " transform="translate(30,71)" style="fill: #A0959D;"/><path d="M0 0 C0.99 0 1.98 0 3 0 C3 2.64 3 5.28 3 8 C7.62 8 12.24 8 17 8 C17 8.99 17 9.98 17 11 C11.39 11 5.78 11 0 11 C0 7.37 0 3.74 0 0 Z " transform="translate(99,71)" style="fill: #9F949C;"/><path d="M0 0 C1.32 0 2.64 0 4 0 C4.05383848 2.45862401 4.09359038 4.9160755 4.125 7.375 C4.14175781 8.07367188 4.15851562 8.77234375 4.17578125 9.4921875 C4.19344267 11.32897486 4.10303261 13.16601963 4 15 C3.34 15.66 2.68 16.32 2 17 C1.67 14.03 1.34 11.06 1 8 C-3.29 8 -7.58 8 -12 8 C-12 7.34 -12 6.68 -12 6 C-8.04 6 -4.08 6 0 6 C0 4.02 0 2.04 0 0 Z " transform="translate(28,93)" style="fill: #A298A0;"/><path d="M0 0 C2.12472576 -0.05386629 4.24983652 -0.09273071 6.375 -0.125 C7.55835938 -0.14820312 8.74171875 -0.17140625 9.9609375 -0.1953125 C13 0 13 0 15 2 C18.28764015 2.32057871 18.28764015 2.32057871 22 2.25 C23.8871875 2.25773437 23.8871875 2.25773437 25.8125 2.265625 C29.09282361 2.33780455 29.09282361 2.33780455 31 0 C34.0390625 -0.1953125 34.0390625 -0.1953125 37.625 -0.125 C39.40777344 -0.09792969 39.40777344 -0.09792969 41.2265625 -0.0703125 C42.14179687 -0.04710938 43.05703125 -0.02390625 44 0 C44 0.33 44 0.66 44 1 C40.04 1 36.08 1 32 1 C31.34 2.32 30.68 3.64 30 5 C24.72 5 19.44 5 14 5 C13.34 3.68 12.68 2.36 12 1 C8.04 1 4.08 1 0 1 C0 0.67 0 0.34 0 0 Z " transform="translate(44,20)" style="fill: #5C5056;"/><path d="M0 0 C0.99 0.33 1.98 0.66 3 1 C2.75174074 4.29378088 2.47258139 7.58421793 2.1875 10.875 C2.11724609 11.81214844 2.04699219 12.74929687 1.97460938 13.71484375 C1.89404297 14.61074219 1.81347656 15.50664063 1.73046875 16.4296875 C1.66239014 17.25710449 1.59431152 18.08452148 1.52416992 18.93701172 C1 21 1 21 -2 23 C-2.05429278 20.29139335 -2.09381211 17.58389099 -2.125 14.875 C-2.14175781 14.11445312 -2.15851562 13.35390625 -2.17578125 12.5703125 C-2.21546246 7.96729269 -1.75907577 4.33535996 0 0 Z " transform="translate(8,73)" style="fill: #818181;"/><path d="M0 0 C0.66 0.33 1.32 0.66 2 1 C1.505 1.639375 1.01 2.27875 0.5 2.9375 C-1.09802862 4.70974339 -1.09802862 4.70974339 -1 6 C-3.97 6 -6.94 6 -10 6 C-8.26440562 9.057952 -6.61527381 11.63379989 -4 14 C-4.33 14.66 -4.66 15.32 -5 16 C-6.32 14.68 -7.64 13.36 -9 12 C-8.34 13.65 -7.68 15.3 -7 17 C-8.9375 16.1875 -8.9375 16.1875 -11 15 C-12.17353189 11.47940432 -12.20146402 8.693507 -12 5 C-9.34884159 2.34884159 -7.48610041 2.60927209 -3.875 2.34375 C-1.76097714 2.13964634 -1.76097714 2.13964634 0 0 Z " transform="translate(60,227)" style="fill: #6D5258;"/><path d="M0 0 C0.66 0.33 1.32 0.66 2 1 C1.3503125 2.670625 1.3503125 2.670625 0.6875 4.375 C-0.53698364 7.61154596 -1.55674613 10.85866226 -2.5 14.1875 C-3.56172541 17.83331899 -4.80190739 20.8598677 -7 24 C-8.86880087 20.26239825 -7.02118985 15.89024705 -6 12 C-2.90526316 2.90526316 -2.90526316 2.90526316 0 0 Z " transform="translate(24,30)" style="fill: #848484;"/><path d="M0 0 C0.66 0 1.32 0 2 0 C2 5.94 2 11.88 2 18 C0.68 18 -0.64 18 -2 18 C-2 15.69 -2 13.38 -2 11 C-5.63 11 -9.26 11 -13 11 C-13 10.67 -13 10.34 -13 10 C-9.04 10 -5.08 10 -1 10 C-0.67 6.7 -0.34 3.4 0 0 Z " transform="translate(30,139)" style="fill: #A0959D;"/><path d="M0 0 C0.33 0 0.66 0 1 0 C1 6.6 1 13.2 1 20 C0.01 20.33 -0.98 20.66 -2 21 C-2.69937532 22.31647119 -3.36729133 23.65022151 -4 25 C-4.66 25.33 -5.32 25.66 -6 26 C-5.37136687 21.34811481 -5.37136687 21.34811481 -3.50268555 19.59643555 C-1.63069303 17.6076526 -1.51764882 16.46065256 -1.26953125 13.76953125 C-1.18896484 12.96708984 -1.10839844 12.16464844 -1.02539062 11.33789062 C-0.95513672 10.50451172 -0.88488281 9.67113281 -0.8125 8.8125 C-0.73064453 7.96751953 -0.64878906 7.12253906 -0.56445312 6.25195312 C-0.36440291 4.16907732 -0.18062716 2.08464997 0 0 Z " transform="translate(131,129)" style="fill: #7A7A7A;"/><path d="M0 0 C0.33 0 0.66 0 1 0 C1 4.95 1 9.9 1 15 C-3.95 15 -8.9 15 -14 15 C-14 12.36 -14 9.72 -14 7 C-15.32 7 -16.64 7 -18 7 C-17.67 5.68 -17.34 4.36 -17 3 C-15 4 -15 4 -13 6 C-12.63066355 8.75372909 -12.81663322 11.20365661 -13 14 C-8.71 14 -4.42 14 0 14 C0 9.38 0 4.76 0 0 Z " transform="translate(89,169)" style="fill: #93858F;"/><path d="M0 0 C0.33 0 0.66 0 1 0 C1 2.97 1 5.94 1 9 C2.03060547 8.94779297 2.03060547 8.94779297 3.08203125 8.89453125 C3.98308594 8.86746094 4.88414063 8.84039062 5.8125 8.8125 C6.70582031 8.77769531 7.59914063 8.74289063 8.51953125 8.70703125 C11 9 11 9 12.82421875 10.38671875 C14 12 14 12 14 14 C10.125 13.125 10.125 13.125 9 12 C6.65012738 11.76472227 4.29443961 11.58613583 1.9375 11.4375 C0.64714844 11.35371094 -0.64320312 11.26992188 -1.97265625 11.18359375 C-2.97167969 11.12300781 -3.97070312 11.06242187 -5 11 C-5 10.67 -5 10.34 -5 10 C-3.35 10 -1.7 10 0 10 C0 6.7 0 3.4 0 0 Z " transform="translate(48,9)" style="fill: #C1BABC;"/><path d="M0 0 C1.134375 0.020625 2.26875 0.04125 3.4375 0.0625 C3.4375 2.0425 3.4375 4.0225 3.4375 6.0625 C0.7975 6.0625 -1.8425 6.0625 -4.5625 6.0625 C-4.605221 4.39638095 -4.60313832 2.72867115 -4.5625 1.0625 C-3.5625 0.0625 -3.5625 0.0625 0 0 Z " transform="translate(113.5625,154.9375)" style="fill: #A49BA3;"/><path d="M0 0 C2.64 0 5.28 0 8 0 C8 1.98 8 3.96 8 6 C2.25 6.125 2.25 6.125 0 5 C0 3.35 0 1.7 0 0 Z " transform="translate(109,89)" style="fill: #A49BA3;"/><path d="M0 0 C0.495 0.309375 0.99 0.61875 1.5 0.9375 C4.97986781 2.41644382 8.24028509 2.62402851 12 3 C12 3.99 12 4.98 12 6 C10.52093108 6.02689216 9.04172517 6.04634621 7.5625 6.0625 C6.32693359 6.07990234 6.32693359 6.07990234 5.06640625 6.09765625 C3 6 3 6 2 5 C-0.29629994 3.85185003 -2.07698086 3.69230191 -4.625 3.4375 C-5.44226563 3.35371094 -6.25953125 3.26992187 -7.1015625 3.18359375 C-7.72804687 3.12300781 -8.35453125 3.06242188 -9 3 C-9 2.67 -9 2.34 -9 2 C-4.545 1.505 -4.545 1.505 0 1 C0 0.67 0 0.34 0 0 Z " transform="translate(70,227)" style="fill: #200608;"/><path d="M0 0 C3 0 3 0 4.82421875 1.64453125 C5.43910156 2.35996094 6.05398437 3.07539063 6.6875 3.8125 C7.31011719 4.52019531 7.93273437 5.22789063 8.57421875 5.95703125 C10 8 10 8 10 11 C6.58540955 10.74706737 5.75204681 9.74051411 3.3125 7.1875 C0.35970334 3.11742892 0.35970334 3.11742892 0 0 Z " transform="translate(72,6)" style="fill: #726D79;"/><path d="M0 0 C2.31 0 4.62 0 7 0 C7 1.98 7 3.96 7 6 C4.69 6 2.38 6 0 6 C0 4.02 0 2.04 0 0 Z " transform="translate(15,155)" style="fill: #9D9199;"/><path d="M0 0 C3.76687864 0 4.91190305 0.23537317 8 2 C7.01 2.495 7.01 2.495 6 3 C8.31 5.64 10.62 8.28 13 11 C12.34 11.66 11.68 12.32 11 13 C9.16365966 11.02354928 7.33083938 9.044035 5.5 7.0625 C4.71302734 6.21655273 4.71302734 6.21655273 3.91015625 5.35351562 C0 1.11328125 0 1.11328125 0 0 Z " transform="translate(68,230)" style="fill: #837A87;"/><path d="M0 0 C4.29 0 8.58 0 13 0 C12.01 0.33 11.02 0.66 10 1 C10.33 1.99 10.66 2.98 11 4 C7.7 4 4.4 4 1 4 C1.33 3.01 1.66 2.02 2 1 C1.34 0.67 0.68 0.34 0 0 Z " transform="translate(60,225)" style="fill: #7C6970;"/><path d="M0 0 C0.33 0 0.66 0 1 0 C0.5547115 5.27315333 -0.08373163 10.01770224 -2 15 C-2.66 15 -3.32 15 -4 15 C-4.33 15.66 -4.66 16.32 -5 17 C-3.96232949 10.93267948 -2.66038099 5.5626148 0 0 Z " transform="translate(113,202)" style="fill: #757575;"/><path d="M0 0 C2.31 0 4.62 0 7 0 C7 0.99 7 1.98 7 3 C6.34 3 5.68 3 5 3 C5 3.99 5 4.98 5 6 C3.35 6 1.7 6 0 6 C0 4.02 0 2.04 0 0 Z " transform="translate(54,155)" style="fill: #9F959D;"/><path d="M0 0 C0.99 0.33 1.98 0.66 3 1 C2.67 6.61 2.34 12.22 2 18 C1.01 17.34 0.02 16.68 -1 16 C-1.328125 13.06640625 -1.328125 13.06640625 -1.25 9.5625 C-1.23453125 8.40878906 -1.2190625 7.25507813 -1.203125 6.06640625 C-1 3 -1 3 0 0 Z " transform="translate(124,153)" style="fill: #9D9D9D;"/><path d="M0 0 C2.31 0 4.62 0 7 0 C7 1.98 7 3.96 7 6 C5.35 6 3.7 6 2 6 C2 5.01 2 4.02 2 3 C1.34 3 0.68 3 0 3 C0 2.01 0 1.02 0 0 Z " transform="translate(71,155)" style="fill: #9F949D;"/><path d="M0 0 C1.65 0 3.3 0 5 0 C5 1.98 5 3.96 5 6 C2.69 6 0.38 6 -2 6 C-2 5.01 -2 4.02 -2 3 C-1.34 3 -0.68 3 0 3 C0 2.01 0 1.02 0 0 Z " transform="translate(73,89)" style="fill: #9F949D;"/><path d="M0 0 C1.65 0 3.3 0 5 0 C5 0.99 5 1.98 5 3 C5.66 3 6.32 3 7 3 C7 3.99 7 4.98 7 6 C4.69 6 2.38 6 0 6 C0 4.02 0 2.04 0 0 Z " transform="translate(54,89)" style="fill: #9F959D;"/><path d="M0 0 C0.33 0 0.66 0 1 0 C1.02696009 2.7708983 1.04681952 5.5415345 1.0625 8.3125 C1.07087891 9.09818359 1.07925781 9.88386719 1.08789062 10.69335938 C1.09111328 11.45068359 1.09433594 12.20800781 1.09765625 12.98828125 C1.10289307 13.68477783 1.10812988 14.38127441 1.11352539 15.09887695 C1 17 1 17 0 20 C-0.99 20.33 -1.98 20.66 -3 21 C-3.25203252 16.46341463 -3.25203252 16.46341463 -2.03125 14.21875 C-0.70512811 11.36557866 -0.57917384 8.88066556 -0.375 5.75 C-0.30023438 4.67234375 -0.22546875 3.5946875 -0.1484375 2.484375 C-0.09945312 1.66453125 -0.05046875 0.8446875 0 0 Z " transform="translate(124,157)" style="fill: #727272;"/><path d="M0 0 C2.31 0 4.62 0 7 0 C7 1.65 7 3.3 7 5 C4.69 5 2.38 5 0 5 C0 3.35 0 1.7 0 0 Z " transform="translate(15,89)" style="fill: #9D949D;"/><path d="M0 0 C0 0.66 0 1.32 0 2 C-4.29456388 4.30440013 -8.31479085 5.78184562 -13 7 C-11.98992724 4.3924752 -11.31481637 3.19558554 -8.90625 1.69921875 C-8.1121875 1.36535156 -7.318125 1.03148437 -6.5 0.6875 C-5.7059375 0.34074219 -4.911875 -0.00601562 -4.09375 -0.36328125 C-2 -1 -2 -1 0 0 Z " transform="translate(35,25)" style="fill: #909090;"/><path d="M0 0 C4.47238653 1.41807378 8.71146306 3.11304374 13 5 C13 5.99 13 6.98 13 8 C8.52761347 6.58192622 4.28853694 4.88695626 0 3 C0 2.01 0 1.02 0 0 Z " transform="translate(31,222)" style="fill: #797979;"/><path d="M0 0 C3.21676586 1.60838293 3.64670854 4.78593279 5 8 C5.66 8.66 6.32 9.32 7 10 C6.34 10 5.68 10 5 10 C4.67 10.66 4.34 11.32 4 12 C0.38860104 8.30051813 0.38860104 8.30051813 -1 6 C-0.8125 2.625 -0.8125 2.625 0 0 Z " transform="translate(125,91)" style="fill: #8E8E8E;"/><path d="M0 0 C0.99 0.66 1.98 1.32 3 2 C5.73872955 2.45772063 5.73872955 2.45772063 8.6875 2.625 C9.68136719 2.69976562 10.67523438 2.77453125 11.69921875 2.8515625 C12.45847656 2.90054688 13.21773437 2.94953125 14 3 C9.72105157 5.4312207 5.83692755 5.76325829 1 5 C-1.5625 3 -1.5625 3 -3 1 C-2.01 0.67 -1.02 0.34 0 0 Z " transform="translate(73,225)" style="fill: #797878;"/><path d="M0 0 C3.96 0 7.92 0 12 0 C12 1.32 12 2.64 12 4 C11.38511719 3.91621094 10.77023438 3.83242187 10.13671875 3.74609375 C9.32847656 3.64425781 8.52023438 3.54242188 7.6875 3.4375 C6.88699219 3.33308594 6.08648437 3.22867188 5.26171875 3.12109375 C2.83182884 2.85244822 2.83182884 2.85244822 0 4 C0 2.68 0 1.36 0 0 Z " transform="translate(16,117)" style="fill: #A1969E;"/><path d="M0 0 C3 2 3 2 3.73046875 5.0390625 C3.88128906 6.22242187 4.03210938 7.40578125 4.1875 8.625 C4.42533203 10.40777344 4.42533203 10.40777344 4.66796875 12.2265625 C4.77753906 13.14179687 4.88710937 14.05703125 5 15 C1.70856635 12.02418328 0.97211742 9.33713925 0 5 C-0.125 2.0625 -0.125 2.0625 0 0 Z " transform="translate(117,58)" style="fill: #7C7C7C;"/><path d="M0 0 C2.64 0 5.28 0 8 0 C8 2.31 8 4.62 8 7 C6.66382648 6.02471263 5.3311249 5.04466681 4 4.0625 C3.2575 3.51722656 2.515 2.97195312 1.75 2.41015625 C1.1725 1.94480469 0.595 1.47945312 0 1 C0 0.67 0 0.34 0 0 Z " transform="translate(74,233)" style="fill: #786D7B;"/><path d="M0 0 C2.475 0.495 2.475 0.495 5 1 C5 2.65 5 4.3 5 6 C2 7 2 7 0 6 C0 4.02 0 2.04 0 0 Z " transform="translate(86,122)" style="fill: #9E919A;"/><path d="M0 0 C3.44428265 1.44781793 5.36130962 3.27694609 7.75 6.125 C8.36359375 6.84945312 8.9771875 7.57390625 9.609375 8.3203125 C10.29773438 9.15175781 10.29773438 9.15175781 11 10 C10.01 10.33 9.02 10.66 8 11 C6.84852339 9.73427767 5.70400686 8.46222094 4.5625 7.1875 C3.92441406 6.47980469 3.28632812 5.77210938 2.62890625 5.04296875 C1 3 1 3 0 0 Z " transform="translate(58,233)" style="fill: #7F7987;"/><path d="M0 0 C0.66 0.33 1.32 0.66 2 1 C1.505 1.639375 1.01 2.27875 0.5 2.9375 C-1.09802862 4.70974339 -1.09802862 4.70974339 -1 6 C-4.3 6 -7.6 6 -11 6 C-10.67 5.01 -10.34 4.02 -10 3 C-8.72125 2.87625 -7.4425 2.7525 -6.125 2.625 C-2.65209064 2.30957601 -2.65209064 2.30957601 0 0 Z " transform="translate(60,227)" style="fill: #0E0000;"/><path d="M0 0 C0.99 0.33 1.98 0.66 3 1 C2.71640113 2.4391134 2.42278601 3.87625518 2.125 5.3125 C1.88136719 6.51326172 1.88136719 6.51326172 1.6328125 7.73828125 C1 10 1 10 -1 13 C-2.51403812 8.15507803 -1.36602172 4.7408989 0 0 Z " transform="translate(115,192)" style="fill: #959596;"/><path d="M0 0 C2.875 0.25 2.875 0.25 6 1 C7.375 3.0625 7.375 3.0625 8 5 C5.525 4.01 5.525 4.01 3 3 C4.65 4.65 6.3 6.3 8 8 C7.67 8.66 7.34 9.32 7 10 C5.82739389 8.71372289 4.6620717 7.42080217 3.5 6.125 C2.52546875 5.04605469 2.52546875 5.04605469 1.53125 3.9453125 C0 2 0 2 0 0 Z " transform="translate(56,4)" style="fill: #5E4555;"/><path d="M0 0 C4.13937592 3.30015998 7.58662205 6.17324411 10 11 C6.49411644 10.43601004 5.01017608 9.33036227 2.75 6.625 C2.22921875 6.01914063 1.7084375 5.41328125 1.171875 4.7890625 C0 3 0 3 0 0 Z " transform="translate(50,233)" style="fill: #7E7785;"/><path d="M0 0 C2.475 0.99 2.475 0.99 5 2 C5 2.99 5 3.98 5 5 C3.68 4.01 2.36 3.02 1 2 C2.65 3.98 4.3 5.96 6 8 C5.67 8.66 5.34 9.32 5 10 C2.36 7.69 -0.28 5.38 -3 3 C-2.01 2.01 -1.02 1.02 0 0 Z " transform="translate(60,229)" style="fill: #6C5662;"/><path d="M0 0 C2.31 0 4.62 0 7 0 C7 1.32 7 2.64 7 4 C4.69 4 2.38 4 0 4 C0 2.68 0 1.36 0 0 Z " transform="translate(95,185)" style="fill: #A49AA1;"/><path d="M0 0 C1.32 0 2.64 0 4 0 C4 2.31 4 4.62 4 7 C2.68 7 1.36 7 0 7 C0 4.69 0 2.38 0 0 Z " transform="translate(41,121)" style="fill: #A298A0;"/><path d="M0 0 C2.31 0 4.62 0 7 0 C6.67 1.32 6.34 2.64 6 4 C4.02 4 2.04 4 0 4 C0 2.68 0 1.36 0 0 Z " transform="translate(30,185)" style="fill: #A499A1;"/><path d="M0 0 C2.82249951 1.03491649 3.83374226 1.69915265 5.3125 4.375 C6.02770914 7.10579853 5.9659657 8.39189261 5 11 C4.71125 10.360625 4.4225 9.72125 4.125 9.0625 C3.17176549 6.84793921 3.17176549 6.84793921 1 6 C1 5.01 1 4.02 1 3 C0.34 2.67 -0.32 2.34 -1 2 C-0.67 1.34 -0.34 0.68 0 0 Z " transform="translate(106,28)" style="fill: #9B9B9B;"/><path d="M0 0 C2.31 0 4.62 0 7 0 C6.67 1.32 6.34 2.64 6 4 C4.35 4 2.7 4 1 4 C0.67 2.68 0.34 1.36 0 0 Z " transform="translate(30,61)" style="fill: #A399A0;"/><path d="M0 0 C2.06132142 -0.10864945 4.12431321 -0.18588321 6.1875 -0.25 C7.33605469 -0.29640625 8.48460937 -0.3428125 9.66796875 -0.390625 C13.60353399 0.07075428 15.17745787 1.29971488 18 4 C16.68 4.33 15.36 4.66 14 5 C13.34 3.68 12.68 2.36 12 1 C8.04 1 4.08 1 0 1 C0 0.67 0 0.34 0 0 Z " transform="translate(44,20)" style="fill: #605F61;"/><path d="M0 0 C0.99 0.33 1.98 0.66 3 1 C2.34 3.97 1.68 6.94 1 10 C0.01 9.67 -0.98 9.34 -2 9 C-1.34 6.03 -0.68 3.06 0 0 Z " transform="translate(120,176)" style="fill: #8E8E8E;"/><path d="M0 0 C2.04119788 1.61594832 4.04072937 3.2856382 6 5 C6 5.66 6 6.32 6 7 C4.68 7.33 3.36 7.66 2 8 C1.33333333 5.33333333 0.66666667 2.66666667 0 0 Z " transform="translate(50,238)" style="fill: #7D667B;"/><path d="M0 0 C0.99 0.495 0.99 0.495 2 1 C2.6328125 3.06640625 2.6328125 3.06640625 3.125 5.5625 C3.29257812 6.38878906 3.46015625 7.21507812 3.6328125 8.06640625 C3.75398438 8.70449219 3.87515625 9.34257812 4 10 C3.01 9.67 2.02 9.34 1 9 C0.67 6.03 0.34 3.06 0 0 Z " transform="translate(20,208)" style="fill: #797979;"/><path d="M0 0 C2.31 0 4.62 0 7 0 C7 0.99 7 1.98 7 3 C4.69 3 2.38 3 0 3 C0 2.01 0 1.02 0 0 Z " transform="translate(95,61)" style="fill: #9E929A;"/><path d="M0 0 C2.5 1 2.5 1 5 3 C5.46837899 5.79374292 5.23424505 8.14221036 5 11 C4.67 11 4.34 11 4 11 C4 8.69 4 6.38 4 4 C2.68 4 1.36 4 0 4 C0 2.68 0 1.36 0 0 Z " transform="translate(71,172)" style="fill: #9C8F99;"/><path d="M0 0 C1.98 0 3.96 0 6 0 C6 0.99 6 1.98 6 3 C4.02 3.33 2.04 3.66 0 4 C0 2.68 0 1.36 0 0 Z " transform="translate(15,157)" style="fill: #A6A1A8;"/><path d="M0 0 C1.32 0.66 2.64 1.32 4 2 C3.34 2 2.68 2 2 2 C1.71125 2.639375 1.4225 3.27875 1.125 3.9375 C0 6 0 6 -2 7 C-1.125 2.25 -1.125 2.25 0 0 Z " transform="translate(127,148)" style="fill: #848484;"/><path d="M0 0 C1.485 0.99 1.485 0.99 3 2 C2.67 2.66 2.34 3.32 2 4 C1.34 3.67 0.68 3.34 0 3 C0.66 4.65 1.32 6.3 2 8 C1.01 8 0.02 8 -1 8 C-1.04241723 5.66705225 -1.04092937 3.33297433 -1 1 C-0.67 0.67 -0.34 0.34 0 0 Z " transform="translate(51,9)" style="fill: #6D5667;"/><path d="M0 0 C0 1.32 0 2.64 0 4 C-1.65 4 -3.3 4 -5 4 C-5 3.01 -5 2.02 -5 1 C-3 0 -3 0 0 0 Z " transform="translate(78,128)" style="fill: #9A8D96;"/><path d="M0 0 C1.65 0 3.3 0 5 0 C5 0.99 5 1.98 5 3 C3.35 3.33 1.7 3.66 0 4 C0 2.68 0 1.36 0 0 Z " transform="translate(54,117)" style="fill: #9D9199;"/><path d="M0 0 C0.33 0.99 0.66 1.98 1 3 C-0.375 4.5 -0.375 4.5 -2 6 C-2.66 6 -3.32 6 -4 6 C-3.6875 4.125 -3.6875 4.125 -3 2 C-2.01 1.34 -1.02 0.68 0 0 Z " transform="translate(5,97)" style="fill: #7E7E80;"/><path d="M0 0 C0.99 0.33 1.98 0.66 3 1 C3.33 2.65 3.66 4.3 4 6 C3.01 6.33 2.02 6.66 1 7 C0.67 4.69 0.34 2.38 0 0 Z " transform="translate(115,53)" style="fill: #8B8B8B;"/><path d="M0 0 C0.66 0.33 1.32 0.66 2 1 C1.01 2.98 0.02 4.96 -1 7 C-1.66 7 -2.32 7 -3 7 C-2.25 2.25 -2.25 2.25 0 0 Z " transform="translate(24,30)" style="fill: #7B7B7B;"/><path d="M0 0 C0 0.66 0 1.32 0 2 C-1.8125 3.0625 -1.8125 3.0625 -4 4 C-4.99 3.67 -5.98 3.34 -7 3 C-4.49955934 -0.00052879 -4.2621484 0 0 0 Z " transform="translate(41,22)" style="fill: #7C7C7C;"/><path d="M0 0 C0.99 0 1.98 0 3 0 C3 1.65 3 3.3 3 5 C2.01 4.67 1.02 4.34 0 4 C0 2.68 0 1.36 0 0 Z M0 5 C2 6 2 6 2 6 Z " transform="translate(88,123)" style="fill: #ADA7AD;"/><path d="M0 0 C2.86724686 0.57344937 3.8614515 0.8614515 6 3 C5.67 3.99 5.34 4.98 5 6 C3.35 4.02 1.7 2.04 0 0 Z " transform="translate(76,6)" style="fill: #7F7684;"/><path d="M0 0 C2.475 0.495 2.475 0.495 5 1 C5 1.66 5 2.32 5 3 C3.35 3 1.7 3 0 3 C0 2.01 0 1.02 0 0 Z " transform="translate(56,129)" style="fill: #9F929B;"/><path d="M0 0 C0.99 0.33 1.98 0.66 3 1 C2.67 2.98 2.34 4.96 2 7 C1.01 6.34 0.02 5.68 -1 5 C-0.67 3.35 -0.34 1.7 0 0 Z " transform="translate(8,73)" style="fill: #949495;"/><path d="M0 0 C1.65 0 3.3 0 5 0 C5.33 0.99 5.66 1.98 6 3 C3.03 2.505 3.03 2.505 0 2 C0 1.34 0 0.68 0 0 Z " transform="translate(101,27)" style="fill: #7D7C7D;"/><path d="M0 0 C0.99 0 1.98 0 3 0 C2.34 1.32 1.68 2.64 1 4 C0.01 4 -0.98 4 -2 4 C-1.34 2.68 -0.68 1.36 0 0 Z " transform="translate(72,19)" style="fill: #DEDBDC;"/><path d="M0 0 C1.9375 0.3125 1.9375 0.3125 4 1 C4.33 1.99 4.66 2.98 5 4 C3.0625 3.6875 3.0625 3.6875 1 3 C0.67 2.01 0.34 1.02 0 0 Z " transform="translate(57,19)" style="fill: #DEDCDD;"/><path d="M0 0 C1.32 0.33 2.64 0.66 4 1 C4 1.66 4 2.32 4 3 C2.02 3 0.04 3 -2 3 C-1.34 2.01 -0.68 1.02 0 0 Z " transform="translate(67,3)" style="fill: #805F70;"/><path d="M0 0 C1.98 0 3.96 0 6 0 C6 0.99 6 1.98 6 3 C3.5625 2.625 3.5625 2.625 1 2 C0.67 1.34 0.34 0.68 0 0 Z " transform="translate(59,3)" style="fill: #9E8691;"/><path d="M0 0 C-2 2 -2 2 -6 2 C-6 1.34 -6 0.68 -6 0 C-3.50907189 -1.24546405 -2.58919267 -0.7767578 0 0 Z " transform="translate(98,225)" style="fill: #747474;"/><path d="M0 0 C0 0.99 0 1.98 0 3 C-2.64 3 -5.28 3 -8 3 C-8 2.67 -8 2.34 -8 2 C-2.25 0 -2.25 0 0 0 Z " transform="translate(28,129)" style="fill: #988C95;"/><path d="M0 0 C0.33 0 0.66 0 1 0 C0.67 2.97 0.34 5.94 0 9 C-0.66 8.01 -1.32 7.02 -2 6 C-1.125 2.8125 -1.125 2.8125 0 0 Z " transform="translate(15,55)" style="fill: #737373;"/><path d="M0 0 C0.99 0.33 1.98 0.66 3 1 C3 1.66 3 2.32 3 3 C3.66 3 4.32 3 5 3 C5 3.66 5 4.32 5 5 C4.01 5 3.02 5 2 5 C1.34 3.35 0.68 1.7 0 0 Z " transform="translate(51,12)" style="fill: #7F7886;"/><path d="M0 0 C2.97 0.495 2.97 0.495 6 1 C5.01 1.66 4.02 2.32 3 3 C2.01 2.67 1.02 2.34 0 2 C0 1.34 0 0.68 0 0 Z " transform="translate(98,25)" style="fill: #949494;"/><path d="M0 0 C1.32 0 2.64 0 4 0 C4.33 0.99 4.66 1.98 5 3 C3.35 2.67 1.7 2.34 0 2 C0 1.34 0 0.68 0 0 Z " transform="translate(89,21)" style="fill: #7C7C7C;"/><path d="M0 0 C0.66 0 1.32 0 2 0 C1.67 1.98 1.34 3.96 1 6 C0.34 5.01 -0.32 4.02 -1 3 C-0.67 2.01 -0.34 1.02 0 0 Z " transform="translate(111,208)" style="fill: #949394;"/><path d="M0 0 C1.32 0 2.64 0 4 0 C3.67 1.32 3.34 2.64 3 4 C2.01 2.68 1.02 1.36 0 0 Z " transform="translate(78,233)" style="fill: #6D5566;"/><path d="M0 0 C0.99 0.33 1.98 0.66 3 1 C3 1.99 3 2.98 3 4 C1.68 3.34 0.36 2.68 -1 2 C-0.67 1.34 -0.34 0.68 0 0 Z " transform="translate(28,220)" style="fill: #959595;"/><path d="M0 0 C2 3 2 3 2 5 C1.01 5.33 0.02 5.66 -1 6 C-0.67 4.02 -0.34 2.04 0 0 Z " transform="translate(112,39)" style="fill: #989898;"/><path d="M0 0 C0 0.99 0 1.98 0 3 C-1.32 2.67 -2.64 2.34 -4 2 C-2 0 -2 0 0 0 Z " transform="translate(103,221)" style="fill: #797878;"/><path d="M0 0 C0 0.99 0 1.98 0 3 C-1.32 2.34 -2.64 1.68 -4 1 C-2 0 -2 0 0 0 Z " transform="translate(44,227)" style="fill: #919191;"/><path d="M0 0 C1.98 0.99 1.98 0.99 4 2 C2.68 2.33 1.36 2.66 0 3 C0 2.01 0 1.02 0 0 Z " transform="translate(90,226)" style="fill: #8B8B8B;"/></svg>